<svg width="256" height="256" viewBox="0 0 256 256" fill="none" xmlns="http://www.w3.org/2000/svg">
  <rect width="256" height="256" rx="56" fill="url(#bg)"/>
  <path d="M128 42C100.7 42 78.5 64.2 78.5 91.5C78.5 128.7 128 197 128 197C128 197 177.5 128.7 177.5 91.5C177.5 64.2 155.3 42 128 42ZM128 114.2C115.6 114.2 105.6 104.2 105.6 91.8C105.6 79.4 115.6 69.4 128 69.4C140.4 69.4 150.4 79.4 150.4 91.8C150.4 104.2 140.4 114.2 128 114.2Z" fill="white"/>
  <path d="M59 146L118 164L89 205L59 146Z" fill="white" fill-opacity="0.92"/>
  <path d="M197 146L138 164L167 205L197 146Z" fill="white" fill-opacity="0.92"/>
  <rect x="44" y="108" width="46" height="38" rx="8" transform="rotate(-12 44 108)" fill="white"/>
  <path d="M56 106C56 97.2 63.2 90 72 90C80.8 90 88 97.2 88 106" stroke="white" stroke-width="6" stroke-linecap="round"/>
  <rect x="168" y="110" width="46" height="34" rx="8" transform="rotate(12 168 110)" fill="white"/>
  <circle cx="191" cy="127" r="10" fill="#2F80ED"/>
  <path d="M190.9 98.7L194.1 106.3L201.7 109.5L194.1 112.7L190.9 120.3L187.7 112.7L180.1 109.5L187.7 106.3L190.9 98.7Z" fill="white"/>
  <path d="M82.9 76.7L86.1 84.3L93.7 87.5L86.1 90.7L82.9 98.3L79.7 90.7L72.1 87.5L79.7 84.3L82.9 76.7Z" fill="white"/>
  <defs>
    <linearGradient id="bg" x1="29" y1="16" x2="223" y2="245" gradientUnits="userSpaceOnUse">
      <stop stop-color="#5FA7FF"/>
      <stop offset="1" stop-color="#2F80ED"/>
    </linearGradient>
  </defs>
</svg>
